<?xml version="1.0" standalone="no"?>
<!DOCTYPE svg PUBLIC "-//W3C//DTD SVG 20010904//EN"
 "http://www.w3.org/TR/2001/REC-SVG-20010904/DTD/svg10.dtd">
<svg version="1.0" xmlns="http://www.w3.org/2000/svg"
 width="32" height="32" viewBox="-538 -270 4360 4360"
 preserveAspectRatio="xMidYMid meet">
<metadata>
Created by potrace 1.16, written by Peter Selinger 2001-2019
</metadata>
<rect x="-538" y="-270" width="4360" height="4360" rx="900" fill="#0b0b0b"/>
<g transform="translate(0.000000,3820.000000) scale(0.100000,-0.100000)"
fill="#fafafa" stroke="none">
<path d="M11900 36463 c-40 -11 -132 -17 -335 -22 -280 -6 -280 -6 -345 -41
-65 -34 -65 -34 -265 -41 -118 -4 -214 -12 -235 -19 -21 -8 -119 -15 -245 -19
-210 -7 -210 -7 -275 -41 -65 -34 -65 -34 -255 -41 -105 -4 -206 -12 -225 -19
-19 -7 -107 -15 -195 -19 -155 -7 -162 -8 -225 -41 -59 -30 -77 -34 -185 -41
-66 -4 -136 -13 -155 -19 -19 -6 -84 -15 -145 -19 -97 -8 -119 -13 -185 -45
-42 -20 -90 -36 -110 -36 -19 0 -64 -7 -100 -16 -36 -9 -108 -19 -160 -24 -78
-6 -107 -13 -159 -39 -45 -23 -86 -35 -144 -41 -45 -6 -98 -14 -117 -20 -19
-6 -64 -15 -98 -20 -35 -6 -91 -24 -123 -41 -63 -31 -241 -79 -299 -79 -20 0
-72 -18 -120 -40 -47 -22 -95 -40 -106 -40 -36 0 -155 -40 -226 -76 -37 -18
-86 -36 -110 -40 -98 -14 -234 -57 -295 -94 -37 -22 -101 -48 -150 -61 -55
-15 -103 -35 -132 -56 -25 -18 -75 -49 -111 -70 -116 -67 -273 -230 -334 -348
-51 -100 -51 -100 -51 -295 0 -195 0 -195 31 -255 17 -33 39 -85 47 -116 9
-30 32 -76 50 -100 19 -24 49 -74 67 -109 18 -36 47 -83 66 -106 18 -23 48
-68 68 -100 19 -32 53 -77 76 -99 23 -22 57 -69 75 -105 48 -93 842 -886 950
-948 39 -22 90 -61 115 -87 25 -26 72 -62 104 -82 33 -19 96 -67 140 -108 45
-40 110 -87 146 -105 36 -18 106 -69 156 -114 50 -44 131 -104 180 -133 86
-50 208 -135 338 -235 33 -26 87 -64 119 -83 32 -19 78 -50 103 -69 24 -19 80
-48 124 -66 50 -20 99 -49 128 -75 27 -24 86 -61 133 -82 46 -22 140 -73 209
-115 69 -42 159 -92 199 -113 41 -20 91 -47 110 -59 20 -12 74 -38 121 -56
102 -41 272 -139 320 -186 20 -18 62 -45 95 -58 33 -14 96 -45 140 -70 44 -25
83 -46 88 -46 4 0 61 -24 125 -54 64 -29 142 -59 172 -66 30 -7 71 -20 90 -30
61 -30 304 -161 315 -169 5 -5 60 -27 121 -49 62 -22 139 -54 173 -71 33 -17
88 -42 123 -55 35 -13 98 -42 141 -65 43 -22 89 -41 102 -41 38 0 112 -28 179
-69 67 -40 196 -101 215 -101 6 0 66 -25 131 -55 66 -30 149 -61 185 -70 36
-8 87 -26 113 -39 26 -13 90 -37 142 -54 52 -16 121 -46 153 -65 31 -19 94
-45 140 -57 45 -12 111 -37 147 -55 36 -18 108 -46 160 -63 52 -16 121 -46
153 -65 32 -19 93 -47 135 -62 42 -15 105 -37 139 -51 34 -13 117 -37 184 -54
67 -17 147 -44 178 -59 31 -16 98 -40 148 -54 51 -15 123 -42 160 -60 38 -19
110 -46 160 -60 51 -15 124 -42 162 -62 38 -19 89 -37 113 -41 87 -12 226 -55
292 -89 37 -19 77 -35 89 -35 42 0 211 -52 261 -80 28 -16 69 -33 91 -38 98
-23 234 -67 275 -88 25 -13 70 -28 100 -34 99 -19 203 -52 255 -80 27 -16 75
-35 105 -43 30 -9 107 -34 170 -57 63 -23 151 -50 196 -60 130 -30 190 -49
260 -86 39 -20 80 -34 102 -34 20 0 75 -9 122 -20 47 -11 101 -20 120 -20 19
0 73 -18 120 -40 47 -22 101 -40 120 -40 19 0 73 -9 120 -20 115 -26 714 -29
820 -4 36 8 100 19 142 24 42 5 95 18 117 30 22 11 69 27 103 35 35 9 108 32
163 51 115 41 180 63 320 107 55 17 125 43 156 58 31 16 112 42 179 59 67 17
148 44 180 60 32 16 113 43 180 60 67 17 148 44 180 60 32 16 113 43 181 60
68 17 158 44 199 60 75 29 263 80 297 80 10 0 56 18 103 40 48 22 100 40 120
40 58 0 236 48 299 79 32 17 88 35 123 41 34 5 79 14 98 20 19 6 72 14 117 20
59 6 99 18 145 41 56 28 76 33 178 39 63 5 147 15 185 25 56 13 105 16 245 13
168 -3 177 -5 228 -31 94 -49 116 -134 63 -238 -26 -51 -165 -196 -231 -242
-25 -17 -81 -63 -125 -103 -44 -39 -109 -86 -145 -104 -36 -18 -83 -47 -106
-65 -43 -36 -84 -59 -175 -98 -31 -14 -90 -50 -130 -81 -41 -32 -112 -75 -159
-97 -47 -22 -98 -47 -115 -56 -16 -9 -73 -39 -125 -66 -52 -28 -114 -65 -137
-84 -39 -31 -152 -93 -170 -93 -5 0 -44 -21 -88 -46 -44 -25 -107 -56 -140
-70 -33 -13 -89 -42 -125 -63 -36 -21 -90 -48 -120 -60 -31 -12 -82 -37 -114
-57 -32 -19 -86 -46 -119 -60 -34 -13 -91 -42 -127 -63 -36 -21 -90 -48 -120
-60 -31 -12 -81 -36 -111 -55 -80 -48 -271 -132 -366 -160 -28 -9 -78 -32
-111 -51 -32 -20 -95 -49 -138 -66 -43 -17 -108 -48 -144 -69 -36 -21 -78 -44
-95 -51 -16 -7 -60 -30 -97 -52 -37 -21 -113 -52 -168 -68 -102 -29 -152 -51
-223 -96 -20 -13 -61 -33 -90 -44 -28 -11 -83 -38 -122 -60 -103 -59 -277
-135 -372 -164 -29 -8 -78 -31 -110 -50 -31 -19 -82 -44 -113 -56 -30 -12 -85
-40 -122 -61 -37 -22 -113 -53 -170 -69 -57 -17 -130 -45 -163 -63 -104 -58
-117 -64 -231 -116 -61 -27 -116 -50 -122 -50 -25 0 -105 -33 -161 -66 -33
-20 -106 -49 -163 -65 -57 -17 -132 -46 -168 -66 -98 -55 -130 -69 -184 -82
-26 -6 -79 -27 -117 -46 -37 -19 -114 -48 -169 -64 -56 -16 -127 -45 -159 -64
-84 -50 -273 -133 -368 -161 -28 -9 -78 -32 -112 -52 -33 -19 -105 -49 -161
-65 -55 -16 -132 -45 -169 -64 -38 -19 -91 -40 -117 -46 -61 -15 -82 -25 -164
-71 -43 -24 -108 -47 -189 -68 -68 -17 -154 -46 -192 -66 -38 -19 -111 -46
-162 -61 -50 -14 -123 -41 -162 -60 -38 -18 -75 -33 -82 -33 -26 0 -106 -33
-161 -66 -31 -19 -87 -43 -123 -54 -36 -11 -86 -35 -110 -54 -25 -18 -76 -49
-114 -69 -205 -104 -349 -314 -316 -462 16 -71 49 -117 145 -201 97 -85 184
-143 263 -174 32 -13 92 -43 133 -66 81 -47 194 -80 321 -94 52 -6 96 -18 136
-38 32 -16 110 -43 173 -60 63 -17 146 -47 183 -66 38 -20 78 -36 90 -36 44 0
206 -51 271 -85 37 -19 77 -35 89 -35 12 0 47 -7 77 -15 30 -8 84 -20 118 -25
35 -6 90 -24 122 -40 32 -16 113 -43 180 -60 67 -17 148 -44 180 -60 32 -16
113 -43 180 -60 67 -17 148 -44 180 -60 32 -16 113 -43 180 -60 67 -17 148
-44 180 -60 32 -16 113 -43 180 -60 67 -17 148 -44 180 -60 32 -16 113 -43
180 -60 67 -17 148 -44 179 -59 31 -16 91 -38 134 -50 42 -11 116 -41 163 -66
46 -25 95 -45 107 -45 44 0 205 -51 271 -85 37 -19 77 -35 89 -35 44 0 206
-51 271 -85 37 -19 77 -35 89 -35 50 0 215 -54 274 -90 35 -21 100 -48 146
-60 45 -12 107 -35 138 -51 31 -15 112 -42 179 -59 67 -17 152 -46 189 -64 36
-19 109 -47 161 -64 52 -16 121 -46 153 -65 31 -19 94 -45 140 -57 45 -12 111
-37 147 -55 36 -18 106 -45 155 -61 49 -15 118 -43 153 -61 35 -18 74 -33 87
-33 37 0 105 -26 181 -69 38 -22 104 -49 147 -60 42 -12 116 -41 163 -66 46
-25 96 -45 109 -45 38 0 107 -27 181 -70 38 -22 117 -56 175 -74 59 -19 124
-46 145 -60 22 -14 67 -37 100 -50 34 -14 96 -43 138 -66 42 -22 88 -40 101
-40 37 0 108 -27 172 -65 32 -19 85 -45 118 -59 33 -13 92 -43 130 -65 39 -23
119 -57 178 -76 59 -19 121 -44 138 -56 17 -12 67 -37 112 -56 45 -19 102 -47
127 -63 25 -16 79 -43 120 -60 41 -17 95 -44 120 -60 25 -16 79 -43 120 -60
41 -17 95 -44 120 -60 25 -16 82 -44 127 -63 46 -19 100 -48 120 -65 58 -45
202 -129 269 -156 33 -14 87 -41 120 -60 32 -19 88 -47 122 -61 35 -14 80 -36
101 -49 20 -13 66 -38 101 -56 36 -18 86 -52 112 -75 27 -24 77 -54 115 -70
73 -29 235 -120 295 -167 20 -16 63 -40 95 -54 93 -40 134 -63 177 -99 23 -18
70 -47 106 -65 36 -18 90 -52 120 -75 141 -107 177 -132 230 -165 141 -85 218
-140 304 -216 50 -44 116 -95 146 -113 30 -19 75 -50 100 -71 25 -21 70 -52
100 -71 30 -18 100 -74 155 -124 55 -51 123 -105 150 -121 28 -15 111 -86 185
-157 81 -77 163 -145 205 -170 109 -65 1065 -1023 1120 -1122 26 -48 67 -98
130 -160 60 -58 102 -109 120 -145 15 -30 49 -80 75 -110 26 -30 62 -82 80
-114 19 -32 66 -93 105 -135 39 -42 83 -98 99 -126 16 -27 43 -69 61 -91 17
-23 44 -73 60 -110 32 -78 53 -111 125 -204 27 -36 71 -105 97 -155 25 -49 61
-109 78 -132 18 -24 43 -69 56 -100 12 -32 42 -92 65 -133 24 -41 57 -112 73
-157 16 -44 46 -113 66 -152 19 -39 47 -113 62 -164 14 -50 40 -121 58 -157
18 -36 45 -106 61 -155 15 -49 43 -118 61 -153 18 -35 33 -72 33 -82 0 -11 11
-54 25 -96 14 -42 25 -95 25 -118 0 -25 12 -66 31 -106 20 -44 33 -91 40 -145
5 -44 13 -96 19 -115 6 -19 15 -64 20 -98 6 -35 25 -91 42 -125 24 -49 32 -80
38 -157 5 -52 17 -129 28 -170 14 -53 22 -123 27 -238 6 -148 8 -167 33 -220
27 -57 27 -57 27 -602 0 -545 0 -545 -35 -610 -35 -65 -35 -65 -36 -275 -1
-176 -4 -217 -19 -255 -13 -33 -19 -88 -24 -205 -7 -155 -8 -162 -41 -225 -30
-59 -33 -74 -36 -165 -1 -68 -7 -113 -19 -140 -10 -22 -21 -83 -25 -135 -6
-80 -13 -106 -41 -160 -32 -62 -34 -70 -35 -180 -1 -91 -6 -129 -24 -180 -33
-97 -27 -278 12 -337 57 -87 119 -92 247 -19 105 59 153 104 197 181 16 28 60
84 99 126 39 42 86 103 105 135 18 32 52 85 76 117 24 31 65 85 91 118 26 35
63 103 85 157 21 52 51 116 67 141 16 25 45 83 64 128 19 45 44 95 56 112 12
17 36 75 53 128 17 54 45 128 64 164 18 37 47 122 64 189 17 67 44 148 60 180
28 55 71 208 84 298 4 24 20 71 37 104 21 42 33 84 39 141 6 45 15 98 20 117
6 19 15 80 19 135 7 84 14 112 41 165 30 58 34 78 41 185 4 66 13 136 20 155
7 20 14 128 18 255 7 220 7 220 41 285 35 65 35 65 35 540 0 475 0 475 -35
540 -35 65 -35 65 -41 325 -4 168 -10 272 -19 295 -6 19 -15 107 -19 195 -7
155 -8 162 -40 225 -28 54 -35 80 -42 165 -4 55 -13 116 -19 135 -5 19 -15 64
-20 98 -6 35 -24 91 -41 124 -21 41 -33 84 -39 137 -12 107 -46 233 -80 301
-16 32 -43 113 -60 180 -17 67 -44 148 -60 180 -16 32 -43 113 -60 181 -22 90
-43 145 -74 199 -23 41 -52 100 -65 130 -12 31 -36 80 -54 110 -37 62 -49 90
-71 171 -9 30 -31 75 -49 100 -18 24 -56 87 -84 139 -27 52 -57 109 -66 125
-9 17 -34 68 -56 115 -22 47 -65 118 -97 159 -31 40 -67 99 -81 130 -39 91
-62 132 -98 175 -18 23 -47 70 -65 106 -18 36 -67 104 -109 151 -101 115 -173
214 -212 291 -19 38 -68 103 -123 163 -51 55 -103 116 -116 135 -13 19 -92
107 -176 195 -116 123 -160 176 -187 230 -51 100 -438 486 -537 535 -50 25
-105 71 -245 204 -99 95 -196 183 -215 196 -19 13 -80 65 -135 116 -62 56
-125 104 -165 124 -40 20 -106 70 -171 129 -129 116 -227 189 -311 232 -35 17
-102 66 -149 108 -114 101 -213 173 -291 212 -35 17 -89 51 -120 75 -32 24
-84 64 -115 88 -32 24 -87 58 -123 76 -36 18 -83 47 -106 65 -43 36 -84 59
-175 98 -31 14 -90 50 -130 82 -41 31 -117 76 -169 101 -127 60 -148 72 -195
109 -22 18 -83 54 -135 82 -52 27 -108 57 -125 66 -16 9 -64 32 -105 51 -41
19 -95 46 -120 60 -25 14 -79 41 -120 60 -41 19 -95 46 -120 60 -25 14 -79 41
-120 60 -41 19 -95 46 -120 60 -25 14 -79 41 -120 60 -41 19 -95 46 -120 60
-25 14 -79 41 -120 60 -41 19 -95 46 -120 60 -71 40 -261 123 -300 131 -38 8
-72 23 -170 78 -36 20 -111 49 -168 66 -57 16 -129 45 -161 64 -84 50 -273
133 -368 161 -28 9 -78 32 -112 52 -33 19 -105 49 -161 65 -55 16 -132 45
-169 64 -38 19 -124 48 -192 65 -81 21 -146 44 -189 68 -82 46 -103 56 -164
71 -26 6 -74 25 -106 41 -32 16 -113 43 -180 60 -67 17 -148 44 -179 59 -31
16 -98 40 -148 54 -51 15 -124 42 -162 61 -38 20 -124 49 -191 66 -67 17 -148
44 -180 60 -32 16 -113 43 -180 60 -67 17 -148 44 -180 60 -32 16 -78 32 -102
36 -90 13 -243 56 -298 84 -32 16 -113 43 -180 60 -67 17 -148 44 -180 60 -32
16 -113 43 -180 60 -67 17 -148 44 -179 59 -31 16 -98 40 -149 55 -128 36
-155 52 -248 148 -129 132 -163 264 -105 413 31 81 210 257 315 312 39 19 87
46 108 59 21 14 62 34 91 45 28 11 84 38 122 60 103 59 277 135 372 163 28 9
78 32 112 52 33 19 105 49 161 65 55 16 132 45 170 64 38 19 88 37 112 41 24
4 79 15 123 25 119 28 671 28 790 0 44 -10 99 -21 123 -25 24 -4 70 -20 102
-36 32 -16 87 -34 122 -40 34 -5 88 -17 118 -25 30 -8 65 -15 77 -15 12 0 61
-20 107 -45 47 -25 121 -55 163 -66 43 -12 103 -34 134 -50 31 -15 112 -42
179 -59 67 -17 148 -44 179 -59 31 -16 91 -38 134 -50 42 -11 116 -41 163 -66
46 -25 95 -45 107 -45 50 0 215 -54 274 -90 35 -21 100 -48 146 -60 45 -12
116 -41 157 -64 41 -23 91 -48 110 -56 19 -7 64 -28 100 -46 36 -17 102 -42
146 -54 49 -13 114 -41 164 -70 51 -30 113 -57 164 -70 44 -12 115 -41 156
-64 41 -23 100 -52 130 -65 31 -12 81 -36 111 -55 30 -18 90 -49 134 -68 44
-20 116 -52 160 -72 44 -19 112 -53 150 -75 39 -22 95 -50 125 -62 30 -13 89
-44 130 -69 41 -25 104 -58 140 -74 36 -15 92 -43 124 -62 33 -20 87 -46 120
-60 66 -27 211 -111 266 -154 20 -16 67 -43 105 -62 146 -72 272 -143 325
-183 30 -23 85 -64 122 -92 42 -32 104 -65 163 -88 65 -25 109 -49 142 -79 26
-24 73 -56 103 -71 30 -15 82 -48 115 -73 33 -25 85 -65 115 -87 30 -23 98
-64 150 -92 52 -27 109 -57 125 -66 17 -9 64 -32 105 -52 41 -19 102 -49 135
-67 60 -33 60 -33 225 -33 218 1 276 27 370 172 70 106 72 118 68 406 -3 252
-3 252 -37 317 -28 54 -35 79 -42 165 -4 55 -13 116 -19 135 -5 19 -15 64 -20
98 -6 35 -24 91 -41 124 -21 41 -33 84 -39 137 -12 107 -46 233 -80 302 -16
31 -32 77 -36 101 -13 91 -56 243 -85 300 -21 41 -33 84 -39 137 -12 107 -46
233 -80 301 -16 32 -43 113 -60 180 -17 67 -44 148 -60 180 -16 32 -43 113
-60 180 -17 67 -44 148 -60 180 -16 32 -43 113 -60 180 -17 67 -44 148 -59
179 -16 31 -43 109 -60 175 -22 80 -45 140 -70 182 -22 36 -49 101 -61 147
-12 45 -37 111 -55 147 -18 36 -46 108 -63 161 -16 53 -41 114 -56 135 -14 22
-43 82 -64 135 -21 53 -52 118 -69 145 -16 27 -40 72 -52 99 -12 28 -35 70
-51 95 -16 25 -43 79 -60 120 -17 41 -44 95 -60 120 -16 25 -43 79 -60 120
-17 41 -44 95 -60 121 -17 25 -47 89 -68 141 -21 52 -52 117 -69 144 -16 27
-40 72 -52 99 -12 28 -35 70 -51 95 -16 25 -44 82 -63 127 -19 46 -48 100 -65
120 -42 54 -120 185 -149 251 -39 91 -62 133 -97 176 -18 23 -66 97 -106 166
-40 69 -86 141 -100 160 -15 19 -40 60 -55 90 -15 30 -47 77 -71 103 -29 33
-54 77 -79 141 -39 102 -101 193 -226 335 -42 47 -91 114 -108 149 -35 69
-103 165 -192 271 -31 36 -71 93 -89 125 -19 32 -66 93 -105 135 -39 42 -83
99 -99 126 -16 28 -77 102 -136 165 -59 63 -122 142 -141 175 -23 41 -92 120
-224 255 -111 113 -203 216 -219 245 -38 68 -682 715 -751 755 -28 16 -117 96
-200 180 -158 159 -237 228 -320 275 -27 15 -98 72 -157 126 -59 54 -126 108
-149 120 -24 12 -68 45 -99 74 -30 29 -80 65 -110 80 -30 15 -94 62 -142 104
-80 71 -156 125 -297 211 -32 19 -84 54 -117 78 -91 66 -183 128 -244 163 -30
17 -73 46 -96 64 -43 36 -84 59 -176 98 -65 29 -196 107 -248 147 -20 16 -67
44 -105 62 -39 19 -104 53 -145 74 -41 22 -98 50 -127 62 -28 13 -73 40 -100
61 -26 21 -91 60 -143 88 -52 27 -108 57 -125 66 -64 35 -252 116 -285 122
-38 8 -72 23 -170 78 -36 20 -111 49 -168 66 -57 16 -130 45 -163 65 -65 39
-137 66 -174 66 -13 0 -63 20 -109 45 -47 25 -121 55 -163 66 -43 12 -103 34
-134 50 -31 15 -79 34 -105 40 -61 15 -82 25 -166 72 -53 30 -82 39 -145 47
-109 12 -234 45 -303 80 -55 28 -208 71 -298 84 -24 4 -70 20 -101 36 -69 34
-195 68 -302 80 -53 6 -96 18 -137 39 -33 17 -89 35 -124 41 -34 5 -79 15 -98
20 -19 6 -80 15 -135 19 -83 7 -112 14 -164 40 -45 23 -86 35 -144 41 -45 6
-98 15 -117 21 -19 5 -89 14 -155 18 -108 7 -126 11 -185 41 -61 31 -73 34
-205 41 -77 4 -156 13 -175 19 -19 7 -120 15 -225 19 -190 7 -190 7 -255 41
-65 34 -65 34 -275 41 -132 4 -223 11 -245 19 -25 10 -133 15 -375 19 -340 6
-340 6 -405 41 -65 35 -65 35 -345 41 -208 5 -295 11 -340 23 -87 23 -1071 22
-1155 -1z M3382 32985 c-60 -17 -66 -20 -182 -88 -104 -61 -151 -105 -193
-177 -17 -30 -48 -73 -67 -95 -20 -22 -57 -78 -82 -125 -25 -47 -52 -98 -61
-115 -9 -16 -32 -64 -51 -105 -19 -41 -46 -95 -60 -120 -47 -84 -134 -285
-157 -360 -12 -41 -34 -95 -49 -120 -28 -44 -72 -190 -84 -278 -4 -24 -20 -71
-38 -105 -46 -91 -67 -161 -78 -253 -6 -59 -18 -100 -41 -145 -26 -52 -33 -81
-40 -164 -4 -55 -13 -116 -20 -135 -6 -19 -14 -120 -18 -225 -7 -190 -7 -190
-41 -255 -35 -65 -35 -65 -35 -330 0 -265 0 -265 34 -330 35 -65 35 -65 42
-245 4 -99 12 -196 18 -215 6 -19 15 -72 21 -117 6 -57 18 -99 39 -141 17 -33
33 -80 37 -104 13 -89 56 -242 83 -297 16 -31 40 -98 55 -149 26 -92 48 -144
92 -214 13 -20 35 -65 49 -99 14 -35 43 -93 64 -129 21 -36 48 -90 60 -120 12
-31 37 -82 57 -114 19 -32 46 -86 60 -119 13 -34 42 -91 63 -127 21 -36 48
-91 61 -124 13 -32 41 -80 62 -107 61 -77 113 -163 138 -226 13 -32 40 -87 61
-123 21 -36 50 -93 63 -127 14 -33 41 -87 60 -119 20 -32 45 -83 57 -114 12
-30 40 -85 61 -122 22 -37 53 -112 69 -168 16 -55 45 -132 64 -169 32 -65 75
-213 89 -309 4 -24 20 -71 37 -104 21 -42 33 -84 39 -141 6 -45 15 -98 21
-117 6 -19 14 -107 18 -195 7 -157 8 -161 42 -225 34 -65 34 -65 34 -300 0
-235 0 -235 -35 -300 -35 -65 -35 -65 -35 -240 0 -175 0 -175 32 -236 18 -34
37 -84 44 -110 29 -121 147 -265 298 -365 99 -66 124 -71 325 -67 170 3 171 3
233 35 34 18 81 35 105 39 90 13 243 56 298 84 32 16 113 43 180 60 67 17 149
44 182 61 41 21 84 33 139 39 107 12 213 43 294 85 36 19 76 35 88 35 45 0
214 53 257 80 44 27 190 72 278 84 24 4 70 20 102 36 32 16 78 32 102 36 90
13 243 56 298 84 32 16 113 43 180 60 67 17 148 44 180 60 32 16 113 43 180
60 67 17 148 44 180 60 32 16 113 43 180 60 67 17 148 44 180 60 32 16 113 43
180 60 67 17 152 46 189 64 36 19 107 46 156 62 49 15 118 43 153 61 35 18 73
33 85 33 45 0 214 53 257 80 44 27 190 72 278 84 24 4 70 20 102 36 32 16 80
35 106 41 61 15 82 25 164 71 43 24 108 47 189 68 68 17 149 44 181 60 32 16
113 43 180 60 67 17 152 46 189 64 36 19 109 47 162 64 53 16 114 41 135 55
38 25 208 77 251 77 12 0 61 20 107 45 47 25 121 55 163 66 43 12 103 34 134
50 31 15 112 42 180 59 81 21 146 44 189 68 91 52 107 58 184 71 38 7 95 26
128 42 33 17 95 43 138 59 43 16 105 42 138 59 33 17 115 44 182 61 67 17 148
44 179 59 31 16 93 39 138 51 46 12 109 38 140 57 32 19 101 49 153 65 189 60
277 114 420 257 157 157 165 170 165 281 0 83 -1 87 -53 186 -51 99 -55 104
-133 155 -230 155 -279 181 -401 215 -51 15 -118 39 -149 55 -31 15 -112 42
-180 59 -81 21 -146 44 -189 68 -82 46 -103 56 -164 71 -26 6 -74 25 -105 40
-31 16 -91 38 -134 50 -42 11 -116 41 -163 66 -46 25 -96 45 -109 45 -37 0
-109 27 -174 66 -33 20 -104 48 -158 64 -55 16 -137 47 -183 69 -46 23 -90 41
-97 41 -26 0 -105 32 -162 66 -33 20 -105 49 -161 65 -55 16 -132 45 -169 64
-38 19 -91 40 -117 46 -54 13 -86 27 -184 82 -36 20 -111 49 -168 66 -57 16
-133 47 -170 68 -37 22 -80 45 -97 52 -16 7 -59 30 -95 51 -36 22 -96 51 -133
65 -37 14 -94 38 -126 54 -31 16 -83 36 -115 44 -31 9 -78 27 -104 42 -26 14
-81 41 -122 61 -41 19 -95 46 -120 60 -25 14 -79 41 -120 60 -41 19 -95 46
-120 60 -25 14 -79 41 -120 60 -41 19 -95 46 -120 60 -25 14 -79 41 -120 60
-41 19 -95 46 -120 60 -25 14 -79 41 -120 60 -41 19 -95 46 -120 60 -25 14
-83 43 -130 65 -112 52 -137 66 -185 104 -39 31 -167 102 -310 173 -38 19 -85
46 -105 62 -46 35 -168 109 -250 150 -36 18 -83 47 -106 65 -43 36 -84 59
-175 98 -31 14 -90 50 -130 81 -41 31 -112 76 -159 100 -47 25 -96 56 -110 71
-14 15 -52 43 -85 63 -33 19 -76 48 -95 62 -19 15 -63 42 -98 59 -69 35 -166
103 -271 192 -36 31 -94 71 -129 88 -94 48 -189 121 -351 272 -102 95 -165
146 -209 168 -95 48 -937 889 -1002 1001 -24 41 -78 113 -120 160 -42 47 -90
105 -107 130 -59 85 -473 486 -533 516 -68 35 -265 45 -358 19z M8700 22784
c-30 -7 -84 -18 -118 -24 -35 -6 -90 -24 -122 -40 -32 -16 -113 -43 -180 -60
-67 -17 -148 -44 -180 -60 -32 -16 -113 -43 -180 -60 -67 -17 -148 -44 -180
-60 -32 -16 -113 -43 -180 -60 -67 -17 -153 -46 -191 -66 -38 -19 -111 -46
-162 -61 -50 -14 -117 -38 -147 -53 -30 -15 -107 -41 -170 -58 -63 -17 -146
-47 -183 -66 -38 -20 -77 -36 -88 -36 -42 0 -224 -52 -280 -80 -31 -16 -77
-32 -101 -36 -90 -13 -243 -56 -298 -84 -32 -16 -113 -43 -180 -60 -67 -17
-149 -44 -182 -61 -41 -21 -84 -33 -137 -39 -107 -12 -233 -46 -301 -80 -55
-28 -208 -71 -298 -84 -24 -4 -70 -20 -102 -36 -32 -16 -113 -43 -180 -60 -67
-17 -149 -44 -182 -61 -41 -21 -84 -33 -139 -39 -107 -12 -213 -43 -294 -85
-41 -22 -81 -35 -103 -35 -94 0 -312 -73 -467 -157 -16 -9 -73 -38 -125 -66
-86 -45 -111 -65 -273 -226 -174 -172 -180 -179 -233 -284 -78 -154 -108 -282
-102 -437 4 -90 9 -124 25 -155 142 -278 181 -326 338 -409 55 -29 114 -60
130 -69 68 -37 252 -116 285 -122 20 -4 60 -20 90 -36 30 -16 89 -45 130 -64
41 -20 89 -43 105 -52 17 -9 75 -40 130 -69 131 -69 287 -222 325 -319 13 -33
43 -94 67 -136 37 -64 45 -88 53 -160 5 -46 15 -100 22 -119 8 -24 14 -169 17
-455 6 -420 6 -420 37 -480 17 -33 39 -85 47 -116 9 -30 32 -76 51 -100 18
-24 49 -76 69 -114 44 -87 129 -172 217 -215 36 -18 91 -52 123 -76 31 -24 83
-64 115 -88 31 -24 89 -59 127 -79 112 -57 248 -201 317 -337 53 -105 53 -105
53 -280 0 -175 0 -175 -35 -240 -35 -65 -35 -65 -35 -200 0 -132 1 -136 31
-195 17 -33 39 -87 49 -120 16 -56 26 -70 158 -203 78 -79 162 -158 187 -175
127 -87 240 -200 297 -295 115 -192 107 -133 113 -887 5 -660 5 -660 37 -721
18 -34 46 -117 63 -184 53 -211 90 -270 304 -492 173 -181 185 -191 281 -242
55 -29 114 -60 130 -69 181 -98 336 -146 505 -157 104 -6 121 -10 180 -41 65
-34 65 -34 460 -34 395 0 395 0 460 34 65 35 65 35 245 42 99 4 196 12 215 19
19 6 98 15 175 19 130 7 145 10 202 39 33 17 90 36 125 42 34 5 79 14 98 20
19 6 72 14 117 20 57 6 99 18 141 39 33 17 80 33 104 37 90 13 243 56 298 84
32 16 113 43 180 60 67 17 153 46 191 65 37 19 114 48 169 64 56 16 128 46
161 65 34 20 84 43 112 52 95 28 286 112 366 160 30 19 80 43 111 55 30 12 84
39 120 60 36 21 94 50 129 64 34 14 80 36 100 49 20 13 71 41 112 61 40 21 92
52 115 70 43 36 84 59 175 98 31 14 90 50 130 81 41 31 114 77 164 103 93 48
182 110 294 204 36 31 95 71 131 89 36 18 81 45 100 60 19 15 56 39 81 54 26
14 87 67 135 117 66 67 107 100 159 126 54 28 106 70 230 187 88 84 180 166
205 183 54 37 590 574 590 591 0 7 74 90 164 185 123 129 171 188 196 237 18
36 67 104 109 151 101 114 173 213 212 291 17 35 51 89 75 121 24 31 64 84 89
117 25 32 57 85 71 117 40 92 63 134 98 177 18 23 55 84 83 136 27 52 57 109
66 125 9 17 32 64 51 105 19 41 46 95 60 120 40 71 123 261 131 300 8 38 23
72 78 170 20 36 48 108 63 160 15 52 39 120 55 151 15 31 42 111 58 177 17 66
47 153 66 193 19 40 35 79 35 86 0 26 32 105 66 162 20 33 49 105 65 161 42
146 79 212 190 341 31 36 67 85 80 108 14 26 42 53 72 72 27 17 78 52 113 79
122 93 224 140 350 160 36 6 94 25 127 42 59 30 69 32 217 38 191 8 281 30
429 104 170 86 211 143 211 296 0 126 -8 140 -144 278 -66 68 -146 141 -176
163 -30 21 -73 52 -96 69 -25 20 -78 42 -143 61 -56 16 -133 45 -170 64 -38
19 -91 40 -117 46 -61 15 -82 25 -164 71 -43 24 -108 47 -189 68 -68 17 -149
44 -181 60 -32 16 -113 43 -180 60 -67 17 -153 46 -191 66 -38 19 -111 46
-162 61 -50 14 -117 38 -148 54 -31 15 -112 42 -179 59 -67 17 -148 44 -180
60 -32 16 -80 35 -106 41 -61 15 -82 25 -164 71 -43 24 -108 47 -189 68 -68
17 -149 44 -181 60 -32 16 -113 43 -180 60 -67 17 -149 44 -182 61 -41 21 -84
33 -137 39 -107 12 -233 46 -301 80 -32 16 -113 43 -180 60 -67 17 -148 44
-179 59 -31 16 -108 42 -171 59 -63 17 -146 47 -183 66 -38 20 -78 36 -90 36
-44 0 -206 51 -271 85 -37 19 -76 35 -87 35 -42 0 -224 52 -279 80 -32 16
-113 43 -180 60 -67 17 -148 44 -179 59 -31 16 -108 42 -171 59 -63 17 -146
47 -183 66 -38 20 -78 36 -90 36 -12 0 -47 7 -77 15 -30 8 -84 20 -118 25 -35
6 -90 24 -122 40 -68 34 -194 68 -301 80 -52 6 -96 18 -136 38 -32 16 -110 43
-173 60 -63 17 -146 47 -183 66 -42 22 -83 36 -105 36 -59 0 -237 47 -301 79
-69 35 -194 69 -302 81 -53 6 -96 18 -137 39 -74 38 -201 70 -313 81 -66 6
-101 16 -150 40 -55 28 -80 34 -174 41 -60 5 -137 15 -170 24 -83 20 -712 20
-795 -1z M21528 18070 c-73 -22 -121 -90 -153 -215 -24 -93 -21 -385 5 -493
11 -46 20 -92 20 -102 0 -10 16 -49 35 -86 34 -66 85 -227 85 -271 0 -12 20
-61 45 -107 25 -47 54 -121 66 -163 11 -43 40 -112 63 -153 23 -41 48 -91 56
-110 7 -19 28 -65 46 -101 18 -37 39 -89 45 -115 13 -54 27 -86 82 -184 20
-36 49 -111 66 -168 16 -57 46 -131 66 -164 20 -34 47 -89 61 -122 13 -33 42
-90 63 -126 21 -36 48 -90 60 -120 12 -31 37 -82 57 -114 19 -32 46 -86 60
-119 13 -34 42 -91 63 -127 21 -36 48 -90 60 -120 12 -31 37 -82 57 -114 19
-32 46 -86 60 -119 13 -34 42 -91 63 -127 21 -36 48 -91 61 -123 25 -63 77
-149 139 -227 21 -27 53 -86 71 -132 34 -90 116 -235 189 -335 52 -70 109
-157 161 -242 33 -54 58 -90 165 -231 23 -30 57 -84 75 -120 18 -36 47 -83 66
-106 18 -23 48 -68 68 -100 19 -32 53 -77 76 -99 23 -22 55 -67 72 -100 17
-33 66 -99 109 -147 43 -48 88 -107 100 -130 12 -24 72 -95 134 -158 74 -75
122 -134 140 -170 19 -37 77 -107 175 -210 81 -85 160 -177 175 -205 16 -27
72 -95 125 -150 95 -98 115 -128 213 -320 33 -64 31 -188 -5 -242 -31 -48 -98
-84 -199 -109 -64 -16 -71 -15 -163 5 -53 11 -111 21 -129 21 -18 0 -70 18
-117 40 -47 22 -93 40 -103 40 -56 0 -229 55 -297 94 -41 23 -100 52 -130 65
-31 12 -82 37 -114 57 -32 19 -74 41 -94 50 -47 19 -217 119 -262 154 -19 15
-64 42 -100 60 -36 18 -91 52 -122 76 -32 24 -84 64 -115 88 -32 24 -87 58
-123 76 -40 20 -103 67 -165 124 -55 51 -116 103 -135 116 -19 13 -89 74 -155
136 -82 76 -141 122 -185 144 -96 48 -811 763 -860 861 -22 43 -69 104 -144
184 -62 66 -123 136 -136 155 -13 19 -65 80 -116 135 -56 62 -104 125 -124
165 -18 36 -67 104 -109 151 -101 115 -173 214 -212 291 -17 35 -46 81 -64
104 -36 43 -59 84 -98 175 -14 31 -50 90 -81 130 -31 41 -77 115 -103 164 -25
50 -60 108 -78 130 -38 48 -52 73 -104 185 -22 47 -51 105 -65 130 -14 25 -41
79 -60 120 -19 41 -46 95 -60 120 -14 25 -41 79 -60 120 -19 41 -46 95 -60
120 -14 25 -41 79 -60 120 -19 41 -46 95 -60 120 -14 25 -41 79 -61 120 -19
41 -48 100 -64 130 -16 30 -32 70 -36 90 -3 19 -29 85 -56 145 -51 113 -57
126 -115 230 -18 33 -46 106 -63 163 -16 57 -47 133 -69 170 -21 37 -49 92
-61 122 -12 31 -37 82 -56 113 -19 31 -48 90 -65 131 -41 99 -173 231 -264
265 -144 53 -337 57 -436 7 -105 -53 -198 -144 -231 -226 -12 -30 -42 -92 -66
-138 -24 -46 -43 -93 -43 -105 0 -12 -7 -47 -15 -77 -8 -30 -20 -84 -25 -118
-6 -35 -24 -91 -41 -124 -21 -41 -33 -84 -39 -139 -12 -107 -43 -213 -85 -294
-19 -36 -35 -75 -35 -86 0 -51 -54 -229 -88 -289 -46 -82 -56 -103 -71 -164
-6 -26 -27 -79 -46 -117 -19 -37 -48 -114 -64 -169 -16 -56 -47 -131 -69 -168
-21 -37 -49 -92 -61 -122 -12 -31 -37 -81 -55 -112 -19 -31 -44 -78 -56 -104
-11 -27 -34 -69 -50 -94 -16 -25 -43 -78 -59 -118 -17 -40 -46 -98 -65 -130
-19 -31 -49 -94 -66 -138 -20 -53 -52 -109 -91 -160 -33 -44 -80 -122 -105
-174 -60 -126 -72 -148 -108 -194 -17 -21 -47 -64 -66 -96 -52 -86 -109 -173
-161 -244 -26 -34 -62 -89 -80 -121 -18 -32 -65 -92 -104 -134 -39 -42 -83
-98 -99 -126 -16 -27 -50 -75 -76 -105 -26 -30 -62 -82 -81 -115 -38 -68 -126
-163 -505 -543 -155 -155 -284 -293 -300 -320 -15 -26 -48 -72 -74 -102 -54
-64 -153 -227 -174 -289 -9 -23 -20 -75 -25 -115 -6 -49 -19 -92 -42 -136 -46
-91 -47 -169 -1 -257 17 -34 34 -81 38 -105 13 -89 56 -242 83 -297 16 -31 40
-98 54 -148 15 -51 42 -124 61 -162 20 -38 41 -91 47 -117 15 -61 25 -82 71
-164 24 -43 47 -108 68 -189 17 -68 44 -149 60 -181 34 -68 68 -194 80 -301 6
-53 18 -96 39 -137 40 -78 71 -205 81 -322 6 -79 13 -107 40 -160 27 -53 34
-81 41 -165 4 -55 13 -116 19 -135 6 -19 15 -89 19 -155 7 -109 11 -126 42
-185 33 -65 33 -65 40 -285 5 -149 12 -239 23 -280 24 -90 24 -1180 0 -1270
-11 -41 -18 -131 -23 -280 -7 -220 -7 -220 -41 -285 -33 -64 -34 -69 -41 -225
-4 -88 -12 -176 -18 -195 -7 -19 -16 -80 -20 -135 -7 -83 -14 -112 -40 -164
-23 -45 -35 -86 -41 -144 -6 -45 -14 -98 -20 -117 -6 -19 -15 -64 -20 -98 -6
-35 -24 -91 -41 -123 -32 -65 -79 -242 -79 -301 0 -25 -15 -66 -45 -122 -25
-47 -55 -121 -66 -163 -12 -43 -34 -103 -49 -133 -15 -30 -38 -92 -50 -136
-13 -50 -41 -114 -70 -164 -31 -53 -57 -114 -71 -167 -12 -46 -40 -114 -62
-151 -21 -37 -50 -94 -63 -127 -14 -33 -42 -89 -63 -125 -21 -36 -48 -91 -61
-123 -25 -63 -77 -149 -139 -227 -21 -27 -53 -86 -70 -132 -18 -46 -50 -112
-71 -148 -55 -91 -70 -140 -80 -255 -4 -55 -14 -121 -21 -146 -10 -39 -10 -56
4 -112 10 -36 17 -79 17 -94 0 -97 58 -168 204 -251 101 -57 101 -57 426 -57
325 0 325 0 390 34 54 28 79 35 165 42 55 4 116 13 135 19 19 6 80 15 135 19
82 7 112 14 162 39 34 17 90 36 125 42 34 5 79 14 98 20 19 6 72 14 117 20 57
6 99 18 141 39 33 17 80 33 104 37 91 13 243 56 300 85 41 21 84 33 137 39
107 12 233 46 302 80 31 16 77 32 101 36 90 13 243 56 298 84 32 16 113 43
180 60 67 17 152 46 189 64 36 19 107 46 156 62 49 15 118 43 153 61 35 18 74
33 87 33 38 0 107 27 179 68 36 21 103 49 149 61 53 14 114 40 167 71 48 28
115 57 160 70 77 20 230 86 320 136 25 14 79 41 120 60 41 19 95 46 120 60 25
14 79 41 120 60 41 19 95 46 120 60 25 14 79 41 120 60 41 19 95 46 120 60 25
14 79 41 120 60 41 19 95 46 120 60 25 14 79 41 120 60 41 19 95 46 120 60 25
14 83 43 130 65 112 52 137 66 185 104 22 18 96 65 165 105 69 40 142 86 162
102 20 16 63 40 95 54 93 40 134 63 177 99 23 18 66 47 96 64 61 35 153 97
244 163 33 24 85 59 117 78 89 54 174 111 243 162 34 25 92 61 127 78 35 18
100 65 144 104 44 40 96 83 115 96 19 13 62 47 95 76 33 28 89 66 125 84 36
18 101 65 145 104 44 40 96 83 115 96 19 13 80 65 135 116 55 50 125 104 155
119 40 20 108 80 250 219 107 105 224 211 260 236 98 68 365 333 407 405 23
39 105 131 237 265 143 145 212 223 236 265 18 33 81 112 140 175 59 63 119
136 134 162 15 26 59 77 97 115 49 47 82 90 106 138 20 39 55 96 79 128 24 31
64 83 88 115 24 31 58 86 76 122 18 36 52 91 76 123 24 31 65 84 90 118 26 33
60 92 76 131 17 39 44 94 61 121 17 28 48 93 69 145 21 52 51 116 68 141 16
26 43 80 60 121 17 41 44 95 60 120 16 25 43 79 60 120 17 41 44 95 59 120 28
43 81 212 81 257 0 12 16 52 35 88 42 81 73 187 85 294 6 55 18 98 39 139 17
33 35 89 41 124 5 34 15 79 20 98 6 19 15 85 19 145 7 96 12 118 41 175 31 60
34 75 41 195 4 72 13 146 19 165 7 19 15 116 19 215 7 180 7 180 42 245 34 65
34 65 34 360 0 295 0 295 -34 360 -34 64 -35 68 -42 225 -4 88 -12 176 -18
195 -7 19 -16 80 -20 135 -7 83 -14 112 -40 164 -23 45 -35 86 -41 144 -6 45
-14 98 -20 117 -6 19 -15 64 -20 98 -6 35 -24 90 -40 122 -16 32 -43 113 -60
180 -17 67 -46 153 -65 191 -19 37 -48 114 -64 169 -16 56 -47 131 -69 168
-21 37 -49 92 -61 122 -12 31 -37 82 -57 114 -19 32 -46 86 -60 119 -13 34
-42 91 -63 127 -21 36 -48 91 -61 123 -24 62 -82 156 -135 222 -18 22 -47 69
-65 105 -18 36 -52 91 -76 123 -24 31 -64 83 -88 115 -24 31 -58 86 -76 122
-18 36 -56 92 -84 125 -29 33 -63 76 -76 95 -13 19 -65 80 -116 135 -59 64
-104 125 -127 170 -54 107 -1036 1085 -1142 1138 -57 29 -95 60 -199 166 -71
72 -150 143 -175 158 -25 14 -71 47 -101 73 -30 26 -84 62 -120 80 -36 18
-101 65 -145 104 -44 40 -96 83 -115 96 -19 13 -62 47 -95 76 -33 28 -89 66
-125 84 -36 18 -91 52 -122 76 -32 24 -84 64 -115 88 -32 24 -87 58 -123 76
-36 18 -83 47 -105 65 -66 53 -160 111 -222 135 -32 13 -94 44 -137 69 -80 46
-80 46 -280 48 -111 1 -213 -2 -228 -7z"/>
</g>
</svg>
